<?xml version="1.0" encoding="utf-8"?>
<!-- Generator: Adobe Illustrator 23.0.4, SVG Export Plug-In . SVG Version: 6.00 Build 0)  -->
<svg version="1.1" id="Layer_1" xmlns="http://www.w3.org/2000/svg" xmlns:xlink="http://www.w3.org/1999/xlink" x="0px" y="0px"
	 viewBox="0 0 16 14.1" style="enable-background:new 0 0 16 14.1;" xml:space="preserve">
<style type="text/css">
	.st0{fill:#FFFFFF;}
</style>
<title>アセット 15</title>
<g id="レイヤー_2">
	<g id="緑色チェック16センチアイコン">
		<g id="icons8-チェックマーク">
			<g id="グループ化_106">
				<g id="グループ化_104">
					<path id="パス_32_1_" class="st0" d="M6.9,10.4c-0.1,0.2-0.2,0.2-0.4,0.1c0,0-0.1,0-0.1-0.1L4.2,7.6C4.1,7.4,4,7.3,4.1,7.2
						c0-0.2,0.1-0.2,0.2-0.3c0.1,0,0.2,0,0.3,0.1l2.1,2.5l5-6.2c0.1-0.1,0.2-0.1,0.2-0.2c0.1,0.2,0.2,0.2,0.2,0.4
						c0.1,0.2,0,0.3-0.1,0.4"/>
				</g>
				<g id="グループ化_105">
					<g id="パス_34">
						<path class="st0" d="M11.7,3.2c-0.2,0-0.3,0.1-0.4,0.2L6.9,8.5L5,7C4.9,6.9,4.6,6.8,4.4,6.8C4.1,6.9,4,6.9,3.9,7.3
							c0,0.2,0,0.4,0.2,0.5l2.4,2.7c0.1,0.2,0.4,0.1,0.6,0.1c0.1-0.1,0.2-0.2,0.2-0.2l5-6.2c0.1-0.2,0.1-0.3,0-0.6
							C12.2,3.3,12,3.2,11.7,3.2z"/>
					</g>
				</g>
			</g>
		</g>
	</g>
</g>
<g>
	<path class="st0" d="M13.9,1.2v11.7H2.1V1.2H13.9 M14.9,0.2H1.1v13.7h13.7L14.9,0.2L14.9,0.2z"/>
</g>
</svg>
